# xmcd
#
# Track frame offsets: 
#        150
#        14994
#        29364
#        42535
#        57153
#        71238
#        85468
#        96872
#        109474
#        122010
#        135646
#        148676
#        161331
#        174754
#        186866
#        200145
#        212472
#        226452
#        239069
#        253111
#        266771
#        278754
#        290757
#        302283
#        313959
#        325339
#        338354
#
# Disc length: 4676 seconds
#
# Revision: 1
# Processed by: cddbd v1.5.2PL0 Copyright (c) Steve Scherf et al.
# Submitted via: ExactAudioCopy v1.1
#
DISCID=a512421b
DTITLE=Earl Bostic - The Earl Bostic Story - Disc1
DYEAR=2006
DGENRE=R&B
TTITLE0=The Man I Love (mono)
TTITLE1=Hurricane Blues (mono)
TTITLE2=The Major And The Minor (mono)
TTITLE3=All On (mono)
TTITLE4=Liza (mono)
TTITLE5=That's The Groovy Thing (Part A) (mono)
TTITLE6=Tippin' In (mono)
TTITLE7=Baby, You Don't Know It All (mono)
TTITLE8=Jumpin' Jack (mono)
TTITLE9=That's The Groovy Thing (Part B) (mono)
TTITLE10=The Barefoot Boy (mono)
TTITLE11=That's The Heat You Gotta Beat (mono)
TTITLE12=Let's Ball Tonight (Part 1) (mono)
TTITLE13=Let's Ball Tonight (Part 2) (mono)
TTITLE14=Away (mono)
TTITLE15=Where Or When (mono)
TTITLE16=Cuttin' Out (mono)
TTITLE17=My Special Dream (mono)
TTITLE18=I'm The Guy Who Loves You (mono)
TTITLE19=Here Goes (mono)
TTITLE20=Bostic's Jump (mono)
TTITLE21=Earl's Rumboogie (mono)
TTITLE22=Hot Sauce Boss (mono)
TTITLE23=845 Stomp (mono)
TTITLE24=Disc Jockey's Nightmare (mono)
TTITLE25=Slightly Groovy (mono)
TTITLE26=Bar Fly Baby (mono)
EXTD=
EXTT0=
EXTT1=
EXTT2=
EXTT3=
EXTT4=
EXTT5=
EXTT6=
EXTT7=
EXTT8=
EXTT9=
EXTT10=
EXTT11=
EXTT12=
EXTT13=
EXTT14=
EXTT15=
EXTT16=
EXTT17=
EXTT18=
EXTT19=
EXTT20=
EXTT21=
EXTT22=
EXTT23=
EXTT24=
EXTT25=
EXTT26=
PLAYORDER=
